<svg xmlns="http://www.w3.org/2000/svg" version="1.1" xmlns:xlink="http://www.w3.org/1999/xlink" xmlns:svgjs="http://svgjs.dev/svgjs" width="1500" height="1500" viewBox="0 0 1500 1500"><rect width="1500" height="1500" fill="#ffffff"></rect><g transform="matrix(0.6666666666666666,0,0,0.6666666666666666,249.39393939393938,484.1842114640785)"><svg viewBox="0 0 396 211" data-background-color="#ffffff" preserveAspectRatio="xMidYMid meet" height="799" width="1500" xmlns="http://www.w3.org/2000/svg" xmlns:xlink="http://www.w3.org/1999/xlink"><g id="tight-bounds" transform="matrix(1,0,0,1,0.2400000000000091,-0.20500992287963982)"><svg viewBox="0 0 395.52 211.41001984575928" height="211.41001984575928" width="395.52"><g><svg viewBox="0 0 395.52 211.41001984575928" height="211.41001984575928" width="395.52"><g transform="matrix(1,0,0,1,0,130.65987361403825)"><svg viewBox="0 0 395.52 80.75014623172103" height="80.75014623172103" width="395.52"><g id="textblocktransform"><svg viewBox="0 0 395.52 80.75014623172103" height="80.75014623172103" width="395.52" id="textblock"><g><svg viewBox="0 0 395.52 80.75014623172103" height="80.75014623172103" width="395.52"><g transform="matrix(1,0,0,1,0,0)"><svg width="395.52" viewBox="1.65 -35.95 177.79 36.300000000000004" height="80.75014623172103" data-palette-color="#222222"><path d="M8.55 0.2L8.55 0.2Q5.95 0.2 4.33-1.33 2.7-2.85 2.7-6.05L2.7-6.05Q2.7-7.65 3.08-9.43 3.45-11.2 3.93-12.93 4.4-14.65 4.75-16.05 5.1-17.45 5.1-18.3L5.1-18.3Q5.1-19.15 4.75-19.53 4.4-19.9 3.9-19.9L3.9-19.9Q3.4-19.9 2.9-19.58 2.4-19.25 2.05-18.6L2.05-18.6 1.65-18.75Q1.75-20.8 2.8-22.25 3.85-23.7 5.43-24.45 7-25.2 8.6-25.2L8.6-25.2Q9.9-25.2 11.1-24.68 12.3-24.15 13.03-23.08 13.75-22 13.7-20.35L13.7-20.35Q13.65-19.25 13.3-17.65 12.95-16.05 12.48-14.23 12-12.4 11.65-10.7 11.3-9 11.3-7.7L11.3-7.7Q11.3-6.6 11.63-5.95 11.95-5.3 12.75-5.3L12.75-5.3Q13.6-5.3 15-6.2 16.4-7.1 17.8-8.8L17.8-8.8Q17.5-11.6 17.5-13.75L17.5-13.75Q17.5-19.25 19.13-21.7 20.75-24.15 23.2-24.15L23.2-24.15Q25-24.15 25.65-22.95 26.3-21.75 26.3-19.75L26.3-19.75Q26.3-16.8 25.3-14.2 24.3-11.6 22.95-10.05L22.95-10.05Q23.05-7.8 23.88-6.55 24.7-5.3 25.85-5.3L25.85-5.3Q27-5.3 28.23-6.6 29.45-7.9 30.35-10.6 31.25-13.3 31.4-17.45L31.4-17.45Q31.45-20.8 30.95-22.35L30.95-22.35 30.95-22.6Q31.65-23.75 33.18-24.58 34.7-25.4 36.25-25.4L36.25-25.4Q37.35-25.4 38.27-24.78 39.2-24.15 39.75-22.48 40.3-20.8 40.15-17.65L40.15-17.65Q40-13.25 38.7-9.93 37.4-6.6 35.38-4.35 33.35-2.1 31-0.95 28.65 0.2 26.35 0.2L26.35 0.2Q23.75 0.2 21.6-1.23 19.45-2.65 18.35-5.25L18.35-5.25Q16.1-2.9 13.73-1.35 11.35 0.2 8.55 0.2ZM51.85-26.75L51.85-26.75Q49.85-26.75 48.57-27.98 47.3-29.2 47.3-31.05L47.3-31.05Q47.3-33.05 48.8-34.5 50.3-35.95 52.45-35.95L52.45-35.95Q54.45-35.95 55.72-34.7 57-33.45 57-31.6L57-31.6Q57-29.6 55.5-28.18 54-26.75 51.85-26.75ZM48.35 0.2L48.35 0.2Q46.4 0.2 44.85-1.18 43.3-2.55 43.3-5.6L43.3-5.6Q43.3-7.35 43.77-8.88 44.25-10.4 44.87-11.85 45.5-13.3 45.97-14.68 46.45-16.05 46.45-17.4L46.45-17.4Q46.45-18.6 46.05-19.13 45.65-19.65 45.1-19.65L45.1-19.65Q44.25-19.65 43.45-18.55L43.45-18.55 43.1-18.75Q43.3-20.75 44.37-22.18 45.45-23.6 47.02-24.4 48.6-25.2 50.15-25.2L50.15-25.2Q52.05-25.2 53.45-23.98 54.85-22.75 54.85-20L54.85-20Q54.85-18.35 54.37-16.53 53.9-14.7 53.27-12.9 52.65-11.1 52.17-9.55 51.7-8 51.7-6.9L51.7-6.9Q51.7-5.95 52.07-5.55 52.45-5.15 52.9-5.15L52.9-5.15Q53.35-5.15 53.77-5.43 54.2-5.7 54.4-6.05L54.4-6.05 54.75-5.95Q54.75-4.1 53.77-2.73 52.8-1.35 51.35-0.58 49.9 0.2 48.35 0.2ZM65.8 0.2L65.8 0.2Q64.2 0.2 62.77-0.53 61.35-1.25 60.47-2.8 59.6-4.35 59.6-6.75L59.6-6.75Q59.6-8.05 59.85-10.15 60.1-12.25 60.52-14.75 60.95-17.25 61.4-19.75L61.4-19.75Q60.4-19.7 59.47-19.55 58.55-19.4 57.65-19.2L57.65-19.2 57.55-19.55Q58.55-20.75 59.65-21.6 60.75-22.45 61.95-23L61.95-23Q62.6-26.3 63.05-28.73 63.5-31.15 63.5-31.6L63.5-31.6Q63.5-32.45 64.82-33 66.15-33.55 67.8-33.55L67.8-33.55Q69.25-33.55 70.52-33 71.8-32.45 72.25-31.15L72.25-31.15Q71.95-30.85 71.4-28.93 70.85-27 70.25-24.25L70.25-24.25Q71.2-24.2 72.2-24.15 73.2-24.1 74.25-24L74.25-24Q74.35-23.7 74.4-23.35 74.45-23 74.45-22.6L74.45-22.6Q74.45-21.85 74.22-20.98 74-20.1 73.7-19.4L73.7-19.4Q72.5-19.5 71.45-19.63 70.4-19.75 69.4-19.8L69.4-19.8Q69-17.65 68.67-15.5 68.35-13.35 68.17-11.6 68-9.85 68-8.85L68-8.85Q68-6.75 68.77-6.05 69.55-5.35 70.65-5.35L70.65-5.35Q71.65-5.35 72.45-5.75 73.25-6.15 73.6-6.7L73.6-6.7 74.1-6.55Q73.8-4.5 72.5-2.98 71.2-1.45 69.4-0.63 67.6 0.2 65.8 0.2ZM81.34 0.2L81.34 0.2Q79.19 0.2 77.89-1.25 76.59-2.7 76.59-5.2L76.59-5.2Q76.59-6.55 76.94-8.72 77.29-10.9 77.82-13.53 78.34-16.15 78.84-18.88 79.34-21.6 79.69-24.15 80.04-26.7 80.04-28.65L80.04-28.65Q80.04-31.1 79.39-32.2L79.39-32.2 79.39-32.5Q80.49-33.75 81.79-34.35 83.09-34.95 84.34-34.95L84.34-34.95Q86.24-34.95 87.59-33.6 88.94-32.25 88.94-29.55L88.94-29.55Q88.94-28.1 88.54-26 88.14-23.9 87.59-21.6 87.04-19.3 86.49-17.3L86.49-17.3Q87.44-19.15 89.02-20.98 90.59-22.8 92.62-24 94.64-25.2 96.84-25.2L96.84-25.2Q99.34-25.2 100.22-23.65 101.09-22.1 101.09-19.8L101.09-19.8Q101.09-17.7 100.64-15.33 100.19-12.95 99.74-10.78 99.29-8.6 99.29-7.15L99.29-7.15Q99.29-5.05 100.54-5.05L100.54-5.05Q101.09-5.05 101.52-5.38 101.94-5.7 102.14-6.1L102.14-6.1 102.49-5.85Q102.49-3.9 101.54-2.55 100.59-1.2 99.12-0.5 97.64 0.2 96.09 0.2L96.09 0.2Q94.04 0.2 92.39-1.18 90.74-2.55 90.74-5.65L90.74-5.65Q90.74-7.4 91.22-9.45 91.69-11.5 92.14-13.43 92.59-15.35 92.59-16.65L92.59-16.65Q92.59-18.35 91.39-18.35L91.39-18.35Q90.29-18.35 88.99-17.25 87.69-16.15 86.72-14.5 85.74-12.85 85.44-11.25L85.44-11.25Q85.34-10.85 85.34-10.3L85.34-10.3Q85.34-9.05 85.72-7.9 86.09-6.75 86.09-5.2L86.09-5.2Q86.09-2.9 84.89-1.35 83.69 0.2 81.34 0.2ZM119.54 0.2L119.54 0.2Q117.74 0.2 116.31-1.28 114.89-2.75 114.89-5.35L114.89-5.35Q114.89-6.65 115.24-8.33 115.59-10 116.01-11.75 116.44-13.5 116.79-15.05 117.14-16.6 117.14-17.65L117.14-17.65Q117.14-18.5 116.74-19.03 116.34-19.55 115.69-19.55L115.69-19.55Q114.84-19.55 113.84-18.55L113.84-18.55 113.54-18.75Q113.49-19.55 113.89-20.65 114.29-21.75 115.19-22.78 116.09-23.8 117.54-24.5 118.99-25.2 120.99-25.2L120.99-25.2Q123.24-25.2 124.36-23.63 125.49-22.05 125.49-19.85L125.49-19.85Q125.49-19.6 125.49-19.33 125.49-19.05 125.44-18.8L125.44-18.8Q126.39-20.35 127.66-21.8 128.94-23.25 130.56-24.23 132.19-25.2 134.09-25.2L134.09-25.2Q136.54-25.2 137.49-23.63 138.44-22.05 138.44-20.05L138.44-20.05Q138.44-19.65 138.41-19.28 138.39-18.9 138.34-18.55L138.34-18.55Q139.39-20.1 140.66-21.63 141.94-23.15 143.59-24.18 145.24-25.2 147.39-25.2L147.39-25.2Q150.04-25.2 151.01-23.65 151.99-22.1 151.99-20L151.99-20Q151.99-18.15 151.54-15.78 151.09-13.4 150.64-11.1 150.19-8.8 150.19-7.2L150.19-7.2Q150.19-6.25 150.46-5.65 150.74-5.05 151.39-5.05L151.39-5.05Q151.94-5.05 152.41-5.38 152.89-5.7 153.09-6.15L153.09-6.15 153.49-6Q153.49-4.15 152.44-2.75 151.39-1.35 149.79-0.58 148.19 0.2 146.59 0.2L146.59 0.2Q144.64 0.2 143.16-1.1 141.69-2.4 141.69-5.4L141.69-5.4Q141.69-7.25 142.16-9.4 142.64-11.55 143.11-13.58 143.59-15.6 143.59-16.9L143.59-16.9Q143.59-18.75 142.29-18.75L142.29-18.75Q141.34-18.75 140.41-17.98 139.49-17.2 138.76-15.93 138.04-14.65 137.59-13.25 137.14-11.85 137.14-10.55L137.14-10.55Q137.14-9.35 137.41-7.93 137.69-6.5 137.69-5.2L137.69-5.2Q137.69-2.6 136.24-1.2 134.79 0.2 132.84 0.2L132.84 0.2Q131.04 0.2 129.61-1 128.19-2.2 128.19-4.6L128.19-4.6Q128.19-5.7 128.49-7.28 128.79-8.85 129.16-10.58 129.54-12.3 129.84-13.9 130.14-15.5 130.14-16.7L130.14-16.7Q130.14-17.65 129.86-18.2 129.59-18.75 128.79-18.75L128.79-18.75Q127.64-18.75 126.59-17.6 125.54-16.45 124.79-14.83 124.04-13.2 123.79-11.7L123.79-11.7Q123.74-11.35 123.71-11.15 123.69-10.95 123.69-10.95L123.69-10.95Q123.69-9.4 124.04-8.13 124.39-6.85 124.39-5.5L124.39-5.5Q124.39-3.05 122.91-1.43 121.44 0.2 119.54 0.2ZM166.64 0.35L166.64 0.35Q162.99 0.35 160.59-1.13 158.19-2.6 156.99-5.03 155.79-7.45 155.79-10.25L155.79-10.25Q155.79-12.9 156.81-15.58 157.84-18.25 159.81-20.45 161.79-22.65 164.61-24 167.44-25.35 170.99-25.35L170.99-25.35Q175.39-25.35 177.41-23.38 179.44-21.4 179.44-18.6L179.44-18.6Q179.44-16.2 178.16-14.18 176.89-12.15 174.79-10.93 172.69-9.7 170.19-9.7L170.19-9.7Q168.89-9.7 167.54-10.1 166.19-10.5 164.89-11.35L164.89-11.35Q165.14-8.25 166.69-6.85 168.24-5.45 170.39-5.45L170.39-5.45Q171.89-5.45 173.39-6.03 174.89-6.6 176.16-7.53 177.44-8.45 178.14-9.5L178.14-9.5 178.49-9.25Q178.49-6.65 177.41-4.83 176.34-3 174.59-1.85 172.84-0.7 170.76-0.18 168.69 0.35 166.64 0.35ZM167.79-13.15L167.79-13.15Q169.39-13.15 170.39-14.08 171.39-15 171.89-16.25 172.39-17.5 172.39-18.45L172.39-18.45Q172.39-19.6 171.74-20.38 171.09-21.15 169.94-21.15L169.94-21.15Q169.04-21.15 167.96-20.5 166.89-19.85 166.04-18.28 165.19-16.7 164.94-13.9L164.94-13.9Q166.54-13.15 167.79-13.15Z" opacity="1" transform="matrix(1,0,0,1,0,0)" fill="#222222" class="wordmark-text-0" data-fill-palette-color="primary" id="text-0"></path></svg></g></svg></g></svg></g></svg></g><g transform="matrix(1,0,0,1,133.96164895388077,0)"><svg viewBox="0 0 127.59670209223846 111.59670209223846" height="111.59670209223846" width="127.59670209223846"><g><svg xmlns="http://www.w3.org/2000/svg" xmlns:xlink="http://www.w3.org/1999/xlink" version="1.1" x="8" y="0" viewBox="12.2 12.2 75.6 75.6" enable-background="new 0 0 100 100" xml:space="preserve" height="111.59670209223846" width="111.59670209223846" class="icon-icon-0" data-fill-palette-color="accent" id="icon-0"><path d="M87.8 50C87.8 29.1 70.9 12.2 50 12.2S12.2 29.1 12.2 50 29.1 87.8 50 87.8C60.3 87.8 69.7 83.7 76.5 77H76.6L78.5 75.1H78.4C84.2 68.4 87.8 59.6 87.8 50M50 14.9C69.4 14.9 85.1 30.7 85.1 50 85.1 59.2 81.6 67.5 75.8 73.8L61.9 67.2C61.8 67.2 61.4 67 60.9 66.6 59.4 65.3 59.4 61.8 59.5 60.7V60.6C59.5 59.7 59.8 59.2 60 58.8 60.3 58.6 61.2 58 62 57.5L62.1 57.4C63.6 56.1 64.1 53 64.2 52.4 64.3 51.5 64.3 50.9 64.3 50.8 64.3 50 64.1 49.3 63.6 48.9L63.2 48.4C63.1 48.4 63.1 48.3 63.1 48.2L63.2 45.4C63.2 38.1 57.3 32.1 49.9 32.1 42.7 32.1 36.7 38 36.6 45.2 36.6 45.5 36.5 47.7 36.5 48.2 36.5 48.3 36.5 48.4 36.4 48.5L35.9 49.1C35.6 49.4 35.2 50 35.2 50.9 35.2 50.9 35.2 51.6 35.3 52.5 35.4 53.1 35.9 56.2 37.4 57.4V57.5C38.1 58 39.2 58.7 39.4 58.9 39.5 59.1 39.8 59.6 39.8 60.7V60.8C39.9 61.9 39.9 65.3 38.5 66.6 37.9 67 37.5 67.3 37.4 67.3L24.3 73.5 24 73.6C18.3 67.4 14.8 59.1 14.8 50 14.9 30.6 30.6 14.9 50 14.9M50 85.1C40.8 85.1 32.4 81.5 26.1 75.7L28.8 74.4 29 74.3 38.5 69.8C39.2 69.6 39.9 69 40.3 68.7 42.8 66.5 42.6 61.7 42.5 60.8 42.5 59.4 42.2 58.3 41.6 57.5 41.3 57 40.4 56.4 39 55.5 38.5 55 38 53.4 37.8 52.2 37.7 51.5 37.7 50.9 37.7 50.9V50.7L38.3 50C38.7 49.6 38.8 48.9 38.9 48.5V48.3S39 45.4 39 45.1C39.1 39.3 43.9 34.5 49.8 34.5 55.8 34.5 60.6 39.4 60.7 45.4L60.6 48.4V48.5C60.6 48.9 60.8 49.6 61.2 50L61.7 50.6V50.8S61.7 51.3 61.6 52.1C61.4 53.3 60.9 54.9 60.4 55.4 58.6 56.5 58 57 57.8 57.3L57.7 57.4C57.1 58.4 56.8 59.4 56.8 60.6 56.8 61.6 56.5 66.3 59.1 68.6 59.4 68.9 60.2 69.4 60.9 69.7L71.7 74.8 73.8 75.8C67.6 81.6 59.2 85.1 50 85.1" fill="#0050c8" data-fill-palette-color="accent"></path></svg></g></svg></g><g><rect width="133.96164895388077" height="7.282131521327513" y="103.31457057091094" x="261.55835104611924" fill="#0050c8" data-fill-palette-color="accent"></rect><rect width="133.96164895388077" height="7.282131521327513" y="103.31457057091094" x="0" fill="#0050c8" data-fill-palette-color="accent"></rect><rect width="133.96164895388077" height="7.282131521327513" y="88.75030752825592" x="261.55835104611924" fill="#0050c8" data-fill-palette-color="accent"></rect><rect width="133.96164895388077" height="7.282131521327513" y="88.75030752825592" x="0" fill="#0050c8" data-fill-palette-color="accent"></rect></g></svg></g><defs></defs></svg><rect width="395.52" height="211.41001984575928" fill="none" stroke="none" visibility="hidden"></rect></g></svg></g></svg>