<svg xmlns="http://www.w3.org/2000/svg" version="1.1" xmlns:xlink="http://www.w3.org/1999/xlink" xmlns:svgjs="http://svgjs.dev/svgjs" width="2000" height="1500" viewBox="0 0 2000 1500"><rect width="2000" height="1500" fill="#ffffff"></rect><g transform="matrix(0.75,0,0,0.75,249.090909090909,373.0846689643985)"><svg viewBox="0 0 396 199" data-background-color="#ffffff" preserveAspectRatio="xMidYMid meet" height="1005" width="2000" xmlns="http://www.w3.org/2000/svg" xmlns:xlink="http://www.w3.org/1999/xlink"><g id="tight-bounds" transform="matrix(1,0,0,1,0.2400000000000091,0.010647928470589818)"><svg viewBox="0 0 395.52 198.97870414305882" height="198.97870414305882" width="395.52"><g><svg viewBox="0 0 395.52000000000004 198.97870414305885" height="198.97870414305882" width="395.52"><g transform="matrix(1,0,0,1,0,122.97682179011767)"><svg viewBox="0 0 395.52000000000004 76.00188235294118" height="76.00188235294118" width="395.52000000000004"><g id="textblocktransform"><svg viewBox="0 0 395.52000000000004 76.00188235294118" height="76.00188235294118" width="395.52000000000004" id="textblock"><g><svg viewBox="0 0 395.52000000000004 76.00188235294118" height="76.00188235294118" width="395.52000000000004"><g transform="matrix(1,0,0,1,0,0)"><svg width="395.52000000000004" viewBox="2.05 -36.4 191.23999999999998 36.75" height="76.00188235294118" data-palette-color="#222222"><path d="M10 0.25L10 0.25Q7.25 0.25 5.4-2.05 3.55-4.35 3.55-8.35L3.55-8.35Q3.55-10.4 4-12.98 4.45-15.55 5.05-18.2 5.65-20.85 6.1-23.18 6.55-25.5 6.55-27.05L6.55-27.05Q6.55-28.15 6.25-28.78 5.95-29.4 5.15-29.4L5.15-29.4Q4.55-29.4 3.75-28.85 2.95-28.3 2.55-26.7L2.55-26.7 2.05-26.9Q2.05-31.2 4.03-33.7 6-36.2 9.35-36.2L9.35-36.2Q12.5-36.2 13.73-34.15 14.95-32.1 14.95-29L14.95-29Q14.95-26.7 14.48-24.1 14-21.5 13.4-18.93 12.8-16.35 12.33-14.15 11.85-11.95 11.85-10.5L11.85-10.5Q11.85-8.35 12.95-8.35L12.95-8.35Q13.6-8.35 14.7-9.28 15.8-10.2 17.03-11.83 18.25-13.45 19.4-15.53 20.55-17.6 21.35-19.9L21.35-19.9Q21.25-21 21.2-22.03 21.15-23.05 21.15-23.85L21.15-23.85Q21.15-27.85 21.93-30.3 22.7-32.75 23.9-33.9 25.1-35.05 26.35-35.05L26.35-35.05Q28.1-35.05 29.5-33.13 30.9-31.2 30.9-27.9L30.9-27.9Q30.9-25.85 30.15-23.33 29.4-20.8 27.65-17.95L27.65-17.95Q27.5-13.65 28.6-11 29.7-8.35 31.35-8.35L31.35-8.35Q32.4-8.35 33.63-9.43 34.85-10.5 35.9-12.43 36.95-14.35 37.63-16.9 38.3-19.45 38.3-22.35L38.3-22.35Q38.3-24.05 38.08-25.9 37.85-27.75 37.52-29.45 37.2-31.15 36.85-32.25L36.85-32.25Q36.85-33.1 37.58-33.98 38.3-34.85 39.45-35.48 40.6-36.1 41.8-36.1L41.8-36.1Q43-36.1 44.1-35.25 45.2-34.4 45.9-32.27 46.6-30.15 46.6-26.25L46.6-26.25Q46.6-20.8 45.2-16.03 43.8-11.25 41.43-7.6 39.05-3.95 36.2-1.88 33.35 0.2 30.4 0.2L30.4 0.2Q27.8 0.2 26.1-1.4 24.4-3 23.45-5.7 22.5-8.4 22.1-11.7L22.1-11.7Q20.3-7.4 18.2-4.78 16.1-2.15 14-0.95 11.9 0.25 10 0.25ZM57.65-26.75L57.65-26.75Q55.65-26.75 54.37-27.98 53.1-29.2 53.1-31.05L53.1-31.05Q53.1-33.05 54.6-34.5 56.1-35.95 58.25-35.95L58.25-35.95Q60.25-35.95 61.52-34.7 62.8-33.45 62.8-31.6L62.8-31.6Q62.8-29.6 61.3-28.18 59.8-26.75 57.65-26.75ZM54.15 0.2L54.15 0.2Q52.2 0.2 50.65-1.18 49.1-2.55 49.1-5.6L49.1-5.6Q49.1-7.35 49.57-8.88 50.05-10.4 50.67-11.85 51.3-13.3 51.77-14.68 52.25-16.05 52.25-17.4L52.25-17.4Q52.25-18.6 51.85-19.13 51.45-19.65 50.9-19.65L50.9-19.65Q50.05-19.65 49.25-18.55L49.25-18.55 48.9-18.75Q49.1-20.75 50.17-22.18 51.25-23.6 52.82-24.4 54.4-25.2 55.95-25.2L55.95-25.2Q57.85-25.2 59.25-23.98 60.65-22.75 60.65-20L60.65-20Q60.65-18.35 60.17-16.53 59.7-14.7 59.07-12.9 58.45-11.1 57.97-9.55 57.5-8 57.5-6.9L57.5-6.9Q57.5-5.95 57.87-5.55 58.25-5.15 58.7-5.15L58.7-5.15Q59.15-5.15 59.57-5.43 60-5.7 60.2-6.05L60.2-6.05 60.55-5.95Q60.55-4.1 59.57-2.73 58.6-1.35 57.15-0.58 55.7 0.2 54.15 0.2ZM71.59 0.2L71.59 0.2Q70 0.2 68.57-0.53 67.15-1.25 66.27-2.8 65.4-4.35 65.4-6.75L65.4-6.75Q65.4-8.05 65.65-10.15 65.9-12.25 66.32-14.75 66.75-17.25 67.2-19.75L67.2-19.75Q66.2-19.7 65.27-19.55 64.34-19.4 63.45-19.2L63.45-19.2 63.35-19.55Q64.34-20.75 65.45-21.6 66.55-22.45 67.75-23L67.75-23Q68.4-26.3 68.84-28.73 69.3-31.15 69.3-31.6L69.3-31.6Q69.3-32.45 70.62-33 71.95-33.55 73.59-33.55L73.59-33.55Q75.05-33.55 76.32-33 77.59-32.45 78.05-31.15L78.05-31.15Q77.75-30.85 77.2-28.93 76.65-27 76.05-24.25L76.05-24.25Q77-24.2 78-24.15 79-24.1 80.05-24L80.05-24Q80.15-23.7 80.2-23.35 80.25-23 80.25-22.6L80.25-22.6Q80.25-21.85 80.02-20.98 79.8-20.1 79.5-19.4L79.5-19.4Q78.3-19.5 77.25-19.63 76.2-19.75 75.2-19.8L75.2-19.8Q74.8-17.65 74.47-15.5 74.15-13.35 73.97-11.6 73.8-9.85 73.8-8.85L73.8-8.85Q73.8-6.75 74.57-6.05 75.34-5.35 76.45-5.35L76.45-5.35Q77.45-5.35 78.25-5.75 79.05-6.15 79.4-6.7L79.4-6.7 79.9-6.55Q79.59-4.5 78.3-2.98 77-1.45 75.2-0.63 73.4 0.2 71.59 0.2ZM87.14 0.2L87.14 0.2Q84.99 0.2 83.69-1.25 82.39-2.7 82.39-5.2L82.39-5.2Q82.39-6.55 82.74-8.72 83.09-10.9 83.62-13.53 84.14-16.15 84.64-18.88 85.14-21.6 85.49-24.15 85.84-26.7 85.84-28.65L85.84-28.65Q85.84-31.1 85.19-32.2L85.19-32.2 85.19-32.5Q86.29-33.75 87.59-34.35 88.89-34.95 90.14-34.95L90.14-34.95Q92.04-34.95 93.39-33.6 94.74-32.25 94.74-29.55L94.74-29.55Q94.74-28.1 94.34-26 93.94-23.9 93.39-21.6 92.84-19.3 92.29-17.3L92.29-17.3Q93.24-19.15 94.82-20.98 96.39-22.8 98.42-24 100.44-25.2 102.64-25.2L102.64-25.2Q105.14-25.2 106.02-23.65 106.89-22.1 106.89-19.8L106.89-19.8Q106.89-17.7 106.44-15.33 105.99-12.95 105.54-10.78 105.09-8.6 105.09-7.15L105.09-7.15Q105.09-5.05 106.34-5.05L106.34-5.05Q106.89-5.05 107.32-5.38 107.74-5.7 107.94-6.1L107.94-6.1 108.29-5.85Q108.29-3.9 107.34-2.55 106.39-1.2 104.92-0.5 103.44 0.2 101.89 0.2L101.89 0.2Q99.84 0.2 98.19-1.18 96.54-2.55 96.54-5.65L96.54-5.65Q96.54-7.4 97.02-9.45 97.49-11.5 97.94-13.43 98.39-15.35 98.39-16.65L98.39-16.65Q98.39-18.35 97.19-18.35L97.19-18.35Q96.09-18.35 94.79-17.25 93.49-16.15 92.52-14.5 91.54-12.85 91.24-11.25L91.24-11.25Q91.14-10.85 91.14-10.3L91.14-10.3Q91.14-9.05 91.52-7.9 91.89-6.75 91.89-5.2L91.89-5.2Q91.89-2.9 90.69-1.35 89.49 0.2 87.14 0.2ZM157.84 0L157.84 0Q156.24 0 154.76-0.9 153.29-1.8 152.39-3.75 151.49-5.7 151.49-8.75L151.49-8.75Q151.49-11.25 152.09-14.38 152.69-17.5 153.66-20.65 154.64-23.8 155.79-26.35L155.79-26.35Q152.34-24.05 149.74-20 147.14-15.95 145.24-10.6L145.24-10.6Q145.64-9 145.89-7.6 146.14-6.2 146.14-5.05L146.14-5.05Q146.14-2.85 145.09-1.6 144.04-0.35 141.44-0.35L141.44-0.35Q139.14-0.35 138.06-1.38 136.99-2.4 136.99-4.25L136.99-4.25Q136.99-5.45 137.41-7 137.84-8.55 138.64-10.35L138.64-10.35Q137.74-13 136.44-16.32 135.14-19.65 132.79-23.6L132.79-23.6Q132.09-20.65 131.36-17.73 130.64-14.8 130.16-12.33 129.69-9.85 129.69-8.15L129.69-8.15Q129.69-5.4 131.19-5.4L131.19-5.4 131.29-5.3Q131.29-3.65 130.46-2.48 129.64-1.3 128.36-0.68 127.09-0.05 125.69-0.05L125.69-0.05Q124.34-0.05 123.06-0.7 121.79-1.35 120.99-2.73 120.19-4.1 120.19-6.25L120.19-6.25Q120.19-8.3 120.91-10.73 121.64-13.15 122.74-15.68 123.84-18.2 124.99-20.63 126.14-23.05 127.06-25.18 127.99-27.3 128.29-28.9L128.29-28.9Q127.29-29.6 126.14-29.6L126.14-29.6Q125.19-29.6 124.21-28.98 123.24-28.35 122.39-26.9L122.39-26.9 122.04-27.05Q122.09-29.6 123.14-31.73 124.19-33.85 125.91-35.13 127.64-36.4 129.69-36.4L129.69-36.4Q132.04-36.4 134.54-34.35 137.04-32.3 139.16-27.6 141.29-22.9 142.59-14.9L142.59-14.9Q144.49-21.05 146.69-25.2 148.89-29.35 151.21-31.8 153.54-34.25 155.81-35.33 158.09-36.4 160.14-36.4L160.14-36.4Q162.69-36.4 164.71-35.15 166.74-33.9 167.91-32 169.09-30.1 169.09-28.2L169.09-28.2Q167.84-28.55 166.61-28.7 165.39-28.85 164.24-28.85L164.24-28.85Q163.09-28.85 162.04-28.7L162.04-28.7Q161.59-26.4 161.09-23.58 160.59-20.75 160.21-17.9 159.84-15.05 159.84-12.65L159.84-12.65Q159.84-10.2 160.34-8.65 160.84-7.1 162.09-7.1L162.09-7.1Q162.89-7.1 163.71-7.8 164.54-8.5 164.94-9.95L164.94-9.95 165.29-9.8Q165.29-6.5 164.19-4.33 163.09-2.15 161.36-1.07 159.64 0 157.84 0ZM180.49 0.35L180.49 0.35Q176.84 0.35 174.44-1.13 172.04-2.6 170.84-5.03 169.64-7.45 169.64-10.25L169.64-10.25Q169.64-12.9 170.66-15.58 171.69-18.25 173.66-20.45 175.64-22.65 178.46-24 181.29-25.35 184.84-25.35L184.84-25.35Q189.24-25.35 191.26-23.38 193.29-21.4 193.29-18.6L193.29-18.6Q193.29-16.2 192.01-14.18 190.74-12.15 188.64-10.93 186.54-9.7 184.04-9.7L184.04-9.7Q182.74-9.7 181.39-10.1 180.04-10.5 178.74-11.35L178.74-11.35Q178.99-8.25 180.54-6.85 182.09-5.45 184.24-5.45L184.24-5.45Q185.74-5.45 187.24-6.03 188.74-6.6 190.01-7.53 191.29-8.45 191.99-9.5L191.99-9.5 192.34-9.25Q192.34-6.65 191.26-4.83 190.19-3 188.44-1.85 186.69-0.7 184.61-0.18 182.54 0.35 180.49 0.35ZM181.64-13.15L181.64-13.15Q183.24-13.15 184.24-14.08 185.24-15 185.74-16.25 186.24-17.5 186.24-18.45L186.24-18.45Q186.24-19.6 185.59-20.38 184.94-21.15 183.79-21.15L183.79-21.15Q182.89-21.15 181.81-20.5 180.74-19.85 179.89-18.28 179.04-16.7 178.79-13.9L178.79-13.9Q180.39-13.15 181.64-13.15Z" opacity="1" transform="matrix(1,0,0,1,0,0)" fill="#222222" class="wordmark-text-0" data-fill-palette-color="primary" id="text-0"></path></svg></g></svg></g></svg></g></svg></g><g transform="matrix(1,0,0,1,145.24269929411764,0)"><svg viewBox="0 0 105.03460141176473 105.03460141176473" height="105.03460141176473" width="105.03460141176473"><g><svg xmlns="http://www.w3.org/2000/svg" xmlns:xlink="http://www.w3.org/1999/xlink" version="1.1" x="0" y="0" viewBox="12.2 12.2 75.6 75.6" enable-background="new 0 0 100 100" xml:space="preserve" height="105.03460141176473" width="105.03460141176473" class="icon-icon-0" data-fill-palette-color="accent" id="icon-0"><path d="M87.8 50C87.8 29.1 70.9 12.2 50 12.2S12.2 29.1 12.2 50 29.1 87.8 50 87.8C60.3 87.8 69.7 83.7 76.5 77H76.6L78.5 75.1H78.4C84.2 68.4 87.8 59.6 87.8 50M50 14.9C69.4 14.9 85.1 30.7 85.1 50 85.1 59.2 81.6 67.5 75.8 73.8L61.9 67.2C61.8 67.2 61.4 67 60.9 66.6 59.4 65.3 59.4 61.8 59.5 60.7V60.6C59.5 59.7 59.8 59.2 60 58.8 60.3 58.6 61.2 58 62 57.5L62.1 57.4C63.6 56.1 64.1 53 64.2 52.4 64.3 51.5 64.3 50.9 64.3 50.8 64.3 50 64.1 49.3 63.6 48.9L63.2 48.4C63.1 48.4 63.1 48.3 63.1 48.2L63.2 45.4C63.2 38.1 57.3 32.1 49.9 32.1 42.7 32.1 36.7 38 36.6 45.2 36.6 45.5 36.5 47.7 36.5 48.2 36.5 48.3 36.5 48.4 36.4 48.5L35.9 49.1C35.6 49.4 35.2 50 35.2 50.9 35.2 50.9 35.2 51.6 35.3 52.5 35.4 53.1 35.9 56.2 37.4 57.4V57.5C38.1 58 39.2 58.7 39.4 58.9 39.5 59.1 39.8 59.6 39.8 60.7V60.8C39.9 61.9 39.9 65.3 38.5 66.6 37.9 67 37.5 67.3 37.4 67.3L24.3 73.5 24 73.6C18.3 67.4 14.8 59.1 14.8 50 14.9 30.6 30.6 14.9 50 14.9M50 85.1C40.8 85.1 32.4 81.5 26.1 75.7L28.8 74.4 29 74.3 38.5 69.8C39.2 69.6 39.9 69 40.3 68.7 42.8 66.5 42.6 61.7 42.5 60.8 42.5 59.4 42.2 58.3 41.6 57.5 41.3 57 40.4 56.4 39 55.5 38.5 55 38 53.4 37.8 52.2 37.7 51.5 37.7 50.9 37.7 50.9V50.7L38.3 50C38.7 49.6 38.8 48.9 38.9 48.5V48.3S39 45.4 39 45.1C39.1 39.3 43.9 34.5 49.8 34.5 55.8 34.5 60.6 39.4 60.7 45.4L60.6 48.4V48.5C60.6 48.9 60.8 49.6 61.2 50L61.7 50.6V50.8S61.7 51.3 61.6 52.1C61.4 53.3 60.9 54.9 60.4 55.4 58.6 56.5 58 57 57.8 57.3L57.7 57.4C57.1 58.4 56.8 59.4 56.8 60.6 56.8 61.6 56.5 66.3 59.1 68.6 59.4 68.9 60.2 69.4 60.9 69.7L71.7 74.8 73.8 75.8C67.6 81.6 59.2 85.1 50 85.1" fill="#0050c8" data-fill-palette-color="accent"></path></svg></g></svg></g><g></g></svg></g><defs></defs></svg><rect width="395.52" height="198.97870414305882" fill="none" stroke="none" visibility="hidden"></rect></g></svg></g></svg>